<svg xmlns="http://www.w3.org/2000/svg" xmlns:xlink="http://www.w3.org/1999/xlink" width="1120" height="490" viewBox="0 0 1120 490" role="img" aria-label="视频进度条"><g font-family="PingFang SC,Microsoft YaHei,Arial,sans-serif"><rect x="0" y="0" width="1120" height="490" rx="0" fill="#0f1511" stroke="none" /><text x="32" y="42" font-size="23" fill="#e0e6e2" text-anchor="start">播放器图标与状态</text><svg xmlns="http://www.w3.org/2000/svg" width="24" height="24" viewBox="0 0 24 24" fill="none" stroke="currentColor" stroke-width="1.75" stroke-linecap="round" stroke-linejoin="round" x="66" y="94" color="#e0e6e2" opacity="1" data-player-icon="skip-back"><path d="M17.971 4.285A2 2 0 0 1 21 6v12a2 2 0 0 1-3.029 1.715l-9.997-5.998a2 2 0 0 1-.003-3.432z"/><path d="M3 20V4"/></svg><text x="78" y="143" font-size="12" fill="#9ba8a0" text-anchor="middle">上一段</text><svg xmlns="http://www.w3.org/2000/svg" width="24" height="24" viewBox="0 0 24 24" fill="none" stroke="currentColor" stroke-width="1.75" stroke-linecap="round" stroke-linejoin="round" x="202" y="94" color="#e0e6e2" opacity="1" data-player-icon="play"><path d="M5 5a2 2 0 0 1 3.008-1.728l11.997 6.998a2 2 0 0 1 .003 3.458l-12 7A2 2 0 0 1 5 19z"/></svg><text x="214" y="143" font-size="12" fill="#9ba8a0" text-anchor="middle">播放</text><svg xmlns="http://www.w3.org/2000/svg" width="24" height="24" viewBox="0 0 24 24" fill="none" stroke="currentColor" stroke-width="1.75" stroke-linecap="round" stroke-linejoin="round" x="338" y="94" color="#e0e6e2" opacity="1" data-player-icon="pause"><rect x="14" y="3" width="5" height="18" rx="1"/><rect x="5" y="3" width="5" height="18" rx="1"/></svg><text x="350" y="143" font-size="12" fill="#9ba8a0" text-anchor="middle">暂停</text><svg xmlns="http://www.w3.org/2000/svg" width="24" height="24" viewBox="0 0 24 24" fill="none" stroke="currentColor" stroke-width="1.75" stroke-linecap="round" stroke-linejoin="round" x="474" y="94" color="#e0e6e2" opacity="1" data-player-icon="skip-forward"><path d="M21 4v16"/><path d="M6.029 4.285A2 2 0 0 0 3 6v12a2 2 0 0 0 3.029 1.715l9.997-5.998a2 2 0 0 0 .003-3.432z"/></svg><text x="486" y="143" font-size="12" fill="#9ba8a0" text-anchor="middle">下一段</text><svg xmlns="http://www.w3.org/2000/svg" width="24" height="24" viewBox="0 0 24 24" fill="none" stroke="currentColor" stroke-width="1.75" stroke-linecap="round" stroke-linejoin="round" x="610" y="94" color="#e0e6e2" opacity="1" data-player-icon="repeat"><path d="m17 2 4 4-4 4"/><path d="M3 11v-1a4 4 0 0 1 4-4h14"/><path d="m7 22-4-4 4-4"/><path d="M21 13v1a4 4 0 0 1-4 4H3"/></svg><text x="622" y="143" font-size="12" fill="#9ba8a0" text-anchor="middle">循环当前片段</text><svg xmlns="http://www.w3.org/2000/svg" width="24" height="24" viewBox="0 0 24 24" fill="none" stroke="currentColor" stroke-width="1.75" stroke-linecap="round" stroke-linejoin="round" x="746" y="94" color="#e0e6e2" opacity="1" data-player-icon="volume"><path d="M11 4.702a.705.705 0 0 0-1.203-.498L6.413 7.587A1.4 1.4 0 0 1 5.416 8H3a1 1 0 0 0-1 1v6a1 1 0 0 0 1 1h2.416a1.4 1.4 0 0 1 .997.413l3.383 3.384A.705.705 0 0 0 11 19.298z"/><path d="M16 9a5 5 0 0 1 0 6"/><path d="M19.364 18.364a9 9 0 0 0 0-12.728"/></svg><text x="758" y="143" font-size="12" fill="#9ba8a0" text-anchor="middle">音量</text><svg xmlns="http://www.w3.org/2000/svg" width="24" height="24" viewBox="0 0 24 24" fill="none" stroke="currentColor" stroke-width="1.75" stroke-linecap="round" stroke-linejoin="round" x="882" y="94" color="#e0e6e2" opacity="1" data-player-icon="volume-low"><path d="M11 4.702a.705.705 0 0 0-1.203-.498L6.413 7.587A1.4 1.4 0 0 1 5.416 8H3a1 1 0 0 0-1 1v6a1 1 0 0 0 1 1h2.416a1.4 1.4 0 0 1 .997.413l3.383 3.384A.705.705 0 0 0 11 19.298z"/><path d="M16 9a5 5 0 0 1 0 6"/></svg><text x="894" y="143" font-size="12" fill="#9ba8a0" text-anchor="middle">低音量</text><svg xmlns="http://www.w3.org/2000/svg" width="24" height="24" viewBox="0 0 24 24" fill="none" stroke="currentColor" stroke-width="1.75" stroke-linecap="round" stroke-linejoin="round" x="1018" y="94" color="#e0e6e2" opacity="1" data-player-icon="volume-x"><path d="M11 4.702a.7.7 0 0 0-1.203-.498L6.413 7.587A1.4 1.4 0 0 1 5.416 8H3a1 1 0 0 0-1 1v6a1 1 0 0 0 1 1h2.416a1.4 1.4 0 0 1 .997.413l3.383 3.384A.7.7 0 0 0 11 19.298z"/><path d="m16.5 14.5 5-5"/><path d="m16.5 9.5 5 5"/></svg><text x="1030" y="143" font-size="12" fill="#9ba8a0" text-anchor="middle">取消静音</text><svg xmlns="http://www.w3.org/2000/svg" width="24" height="24" viewBox="0 0 24 24" fill="none" stroke="currentColor" stroke-width="1.75" stroke-linecap="round" stroke-linejoin="round" x="66" y="212" color="#e0e6e2" opacity="1" data-player-icon="camera"><path d="M13.997 4a2 2 0 0 1 1.76 1.05l.486.9A2 2 0 0 0 18.003 7H20a2 2 0 0 1 2 2v9a2 2 0 0 1-2 2H4a2 2 0 0 1-2-2V9a2 2 0 0 1 2-2h1.997a2 2 0 0 0 1.759-1.048l.489-.904A2 2 0 0 1 10.004 4z"/><circle cx="12" cy="13" r="3"/></svg><text x="78" y="261" font-size="12" fill="#9ba8a0" text-anchor="middle">截取当前帧</text><svg xmlns="http://www.w3.org/2000/svg" width="24" height="24" viewBox="0 0 24 24" fill="none" stroke="currentColor" stroke-width="1.75" stroke-linecap="round" stroke-linejoin="round" x="202" y="212" color="#e0e6e2" opacity="1" data-player-icon="chevron-down"><path d="m6 9 6 6 6-6"/></svg><text x="214" y="261" font-size="12" fill="#9ba8a0" text-anchor="middle">分辨率 / 倍速展开</text><svg xmlns="http://www.w3.org/2000/svg" width="24" height="24" viewBox="0 0 24 24" fill="none" stroke="currentColor" stroke-width="1.75" stroke-linecap="round" stroke-linejoin="round" x="338" y="212" color="#e0e6e2" opacity="1" data-player-icon="rotate-ccw"><path d="M3 12a9 9 0 1 0 9-9 9.75 9.75 0 0 0-6.74 2.74L3 8"/><path d="M3 3v5h5"/></svg><text x="350" y="261" font-size="12" fill="#9ba8a0" text-anchor="middle">重新播放</text><text x="32" y="381" font-size="13" fill="#9ba8a0" text-anchor="start">默认</text><g data-player-control="repeat" data-state="default" role="img" aria-label="循环当前片段"><title>循环当前片段</title><rect x="32" y="398" width="32" height="32" rx="5" fill="none" stroke="none" /><svg xmlns="http://www.w3.org/2000/svg" width="20" height="20" viewBox="0 0 24 24" fill="none" stroke="currentColor" stroke-width="1.75" stroke-linecap="round" stroke-linejoin="round" x="38" y="404" color="#9ba8a0" opacity="1" data-player-icon="repeat"><path d="m17 2 4 4-4 4"/><path d="M3 11v-1a4 4 0 0 1 4-4h14"/><path d="m7 22-4-4 4-4"/><path d="M21 13v1a4 4 0 0 1-4 4H3"/></svg></g><text x="204" y="381" font-size="13" fill="#9ba8a0" text-anchor="start">悬停</text><g data-player-control="repeat" data-state="hover" role="img" aria-label="循环当前片段"><title>循环当前片段</title><rect x="204" y="398" width="32" height="32" rx="5" fill="#28312b" stroke="none" /><svg xmlns="http://www.w3.org/2000/svg" width="20" height="20" viewBox="0 0 24 24" fill="none" stroke="currentColor" stroke-width="1.75" stroke-linecap="round" stroke-linejoin="round" x="210" y="404" color="#e0e6e2" opacity="1" data-player-icon="repeat"><path d="m17 2 4 4-4 4"/><path d="M3 11v-1a4 4 0 0 1 4-4h14"/><path d="m7 22-4-4 4-4"/><path d="M21 13v1a4 4 0 0 1-4 4H3"/></svg></g><text x="376" y="381" font-size="13" fill="#9ba8a0" text-anchor="start">选中</text><g data-player-control="repeat" data-state="selected" role="img" aria-label="循环当前片段"><title>循环当前片段</title><rect x="376" y="398" width="32" height="32" rx="5" fill="#233722" stroke="none" /><svg xmlns="http://www.w3.org/2000/svg" width="20" height="20" viewBox="0 0 24 24" fill="none" stroke="currentColor" stroke-width="1.75" stroke-linecap="round" stroke-linejoin="round" x="382" y="404" color="#84e36c" opacity="1" data-player-icon="repeat"><path d="m17 2 4 4-4 4"/><path d="M3 11v-1a4 4 0 0 1 4-4h14"/><path d="m7 22-4-4 4-4"/><path d="M21 13v1a4 4 0 0 1-4 4H3"/></svg></g><text x="548" y="381" font-size="13" fill="#9ba8a0" text-anchor="start">禁用</text><g data-player-control="repeat" data-state="disabled" role="img" aria-label="循环当前片段"><title>循环当前片段</title><rect x="548" y="398" width="32" height="32" rx="5" fill="none" stroke="none" /><svg xmlns="http://www.w3.org/2000/svg" width="20" height="20" viewBox="0 0 24 24" fill="none" stroke="currentColor" stroke-width="1.75" stroke-linecap="round" stroke-linejoin="round" x="554" y="404" color="#9ba8a0" opacity="0.38" data-player-icon="repeat"><path d="m17 2 4 4-4 4"/><path d="M3 11v-1a4 4 0 0 1 4-4h14"/><path d="m7 22-4-4 4-4"/><path d="M21 13v1a4 4 0 0 1-4 4H3"/></svg></g><text x="720" y="381" font-size="13" fill="#9ba8a0" text-anchor="start">按下</text><g data-player-control="repeat" data-state="pressed" role="img" aria-label="循环当前片段"><title>循环当前片段</title><rect x="720" y="398" width="32" height="32" rx="5" fill="#365942" stroke="none" /><svg xmlns="http://www.w3.org/2000/svg" width="20" height="20" viewBox="0 0 24 24" fill="none" stroke="currentColor" stroke-width="1.75" stroke-linecap="round" stroke-linejoin="round" x="726" y="404" color="#79d063" opacity="1" data-player-icon="repeat"><path d="m17 2 4 4-4 4"/><path d="M3 11v-1a4 4 0 0 1 4-4h14"/><path d="m7 22-4-4 4-4"/><path d="M21 13v1a4 4 0 0 1-4 4H3"/></svg></g><text x="892" y="381" font-size="13" fill="#9ba8a0" text-anchor="start">键盘聚焦</text><g data-player-control="repeat" data-state="focus" role="img" aria-label="循环当前片段"><title>循环当前片段</title><rect x="892" y="398" width="32" height="32" rx="5" fill="none" stroke="none" /><svg xmlns="http://www.w3.org/2000/svg" width="20" height="20" viewBox="0 0 24 24" fill="none" stroke="currentColor" stroke-width="1.75" stroke-linecap="round" stroke-linejoin="round" x="898" y="404" color="#9ba8a0" opacity="1" data-player-icon="repeat"><path d="m17 2 4 4-4 4"/><path d="M3 11v-1a4 4 0 0 1 4-4h14"/><path d="m7 22-4-4 4-4"/><path d="M21 13v1a4 4 0 0 1-4 4H3"/></svg><rect x="890" y="396" width="36" height="36" rx="6" fill="none" stroke="#84e36c" stroke-width="2"/></g></g></svg>